HIERARCHY
ROOT SpineBase
{
  OFFSET 0.000000 0.000000 0.000000
  CHANNELS 6 Xposition Yposition Zposition Zrotation Xrotation Yrotation
  JOINT SpineMid
  {
    OFFSET -0.000000 26.597876 0.000000
    CHANNELS 3 Zrotation Xrotation Yrotation
    JOINT SpineShoulder
    {
      OFFSET -0.050493 19.664773 -0.731131
      CHANNELS 3 Zrotation Xrotation Yrotation
      JOINT Neck
      {
        OFFSET -0.049061 6.497829 -0.537070
        CHANNELS 3 Zrotation Xrotation Yrotation
        JOINT Head
        {
          OFFSET -3.832105 11.499021 0.309151
          CHANNELS 3 Zrotation Xrotation Yrotation
          End Site
          {
            OFFSET 0 0 0
          }
        }
      }
      JOINT ShoulderLeft
      {
        OFFSET -15.776414 -3.046855 7.607864
        CHANNELS 3 Zrotation Xrotation Yrotation
        JOINT ElbowLeft
        {
          OFFSET -1.676808 -24.470337 2.983120
          CHANNELS 3 Zrotation Xrotation Yrotation
          JOINT WristLeft
          {
            OFFSET -2.736312 -20.571507 -1.600072
            CHANNELS 3 Zrotation Xrotation Yrotation
            JOINT HandLeft
            {
              OFFSET -0.399096 -7.665182 -2.608062
              CHANNELS 3 Zrotation Xrotation Yrotation
              JOINT HandTipLeft
              {
                OFFSET -0.546877 -5.791709 -1.950136
                CHANNELS 3 Zrotation Xrotation Yrotation
                End Site
                {
                  OFFSET 0 0 0
                }
              }
              JOINT ThumbLeft
              {
                OFFSET -2.499742 -2.062635 -1.700105
                CHANNELS 3 Zrotation Xrotation Yrotation
                End Site
                {
                  OFFSET 0 0 0
                }
              }
            }
          }
        }
      }
      JOINT ShoulderRight
      {
        OFFSET 13.530845 -1.982463 -8.920011
        CHANNELS 3 Zrotation Xrotation Yrotation
        JOINT ElbowRight
        {
          OFFSET 6.349151 -20.345512 -9.204723
          CHANNELS 3 Zrotation Xrotation Yrotation
          JOINT WristRight
          {
            OFFSET -17.971527 8.949075 -10.672965
            CHANNELS 3 Zrotation Xrotation Yrotation
            JOINT HandRight
            {
              OFFSET -6.336644 2.439101 -3.455241
              CHANNELS 3 Zrotation Xrotation Yrotation
              JOINT HandTipRight
              {
                OFFSET -4.622971 2.191118 -0.861221
                CHANNELS 3 Zrotation Xrotation Yrotation
                End Site
                {
                  OFFSET 0 0 0
                }
              }
              JOINT ThumbRight
              {
                OFFSET -2.404922 -2.727960 -3.754745
                CHANNELS 3 Zrotation Xrotation Yrotation
                End Site
                {
                  OFFSET 0 0 0
                }
              }
            }
          }
        }
      }
    }
  }
  JOINT HipLeft
  {
    OFFSET -5.080734 0.049331 -0.362112
    CHANNELS 3 Zrotation Xrotation Yrotation
    JOINT KneeLeft
    {
      OFFSET -5.080653 -35.729982 5.275862
      CHANNELS 3 Zrotation Xrotation Yrotation
      JOINT AnkleLeft
      {
        OFFSET -0.755820 -34.264969 7.492710
        CHANNELS 3 Zrotation Xrotation Yrotation
        JOINT FootLeft
        {
          OFFSET -4.499495 -3.558333 -11.559915
          CHANNELS 3 Zrotation Xrotation Yrotation
          End Site
          {
            OFFSET 0 0 0
          }
        }
      }
    }
  }
  JOINT HipRight
  {
    OFFSET 4.316647 1.262652 -6.595691
    CHANNELS 3 Zrotation Xrotation Yrotation
    JOINT KneeRight
    {
      OFFSET 9.072015 -34.599558 3.052299
      CHANNELS 3 Zrotation Xrotation Yrotation
      JOINT AnkleRight
      {
        OFFSET 4.378958 -34.030849 6.672960
        CHANNELS 3 Zrotation Xrotation Yrotation
        JOINT FootRight
        {
          OFFSET -4.135611 -4.987829 -8.463758
          CHANNELS 3 Zrotation Xrotation Yrotation
          End Site
          {
            OFFSET 0 0 0
          }
        }
      }
    }
  }
}
MOTION
Frames: 12
Frame Time: 0.033333
39.129935 78.832455 354.222030 0.000000 0.000000 33.557568 -0.000000 0.000000 -33.557568 -0.000000 0.000000 0.000000 -0.000000 0.000000 0.000000 0.000000 0.000000 0.000000 -0.000000 0.000000 0.000000 -0.000000 0.000000 0.000000 -0.000000 0.000000 0.000000 -0.000000 0.000000 0.000000 0.000000 0.000000 0.000000 0.000000 0.000000 0.000000 -0.000000 0.000000 0.000000 -0.000000 0.000000 0.000000 -0.000000 0.000000 0.000000 -0.000000 0.000000 0.000000 0.000000 0.000000 0.000000 0.000000 0.000000 0.000000 -0.000000 0.000000 -33.557568 -0.000000 0.000000 0.000000 -0.000000 0.000000 0.000000 0.000000 0.000000 0.000000 -0.000000 0.000000 -33.557568 -0.000000 0.000000 0.000000 -0.000000 0.000000 0.000000 0.000000 0.000000 0.000000
39.122990 78.795889 354.208666 -0.020361 0.021224 33.456212 0.005287 -0.028933 -33.456206 -0.000000 0.000000 0.000000 -0.000000 0.000000 0.000000 0.000000 0.000000 0.000000 -0.000000 0.000000 0.000000 -0.000000 0.000000 0.000000 0.992877 0.660284 -0.377362 -2.334813 -3.712283 1.066403 0.000000 0.000000 0.000000 0.000000 0.000000 0.000000 -0.000000 0.000000 0.000000 -0.760663 0.244616 -0.421025 1.549407 -0.353525 1.213968 0.952044 -0.412268 -1.177998 0.000000 0.000000 0.000000 0.000000 0.000000 0.000000 0.005287 -0.028933 -33.456206 -0.000000 0.000000 0.000000 -0.000000 0.000000 0.000000 0.000000 0.000000 0.000000 0.005287 -0.028933 -33.456206 -0.000000 0.000000 0.000000 -1.082884 3.461569 -0.944825 0.000000 0.000000 0.000000
39.116659 78.770923 354.201132 -0.036941 0.037944 33.385363 0.009966 -0.052010 -33.385346 -0.000000 0.000000 0.000000 -0.000000 0.000000 0.000000 0.000000 0.000000 0.000000 -0.000000 0.000000 0.000000 -0.000000 0.000000 0.000000 1.832845 1.284578 -0.708987 -4.109927 -6.968598 1.844950 0.000000 0.000000 0.000000 0.000000 0.000000 0.000000 -0.877762 -0.900172 0.109964 -0.415949 1.319492 -0.823536 2.600545 -0.530383 2.157208 1.824201 -0.877470 -2.175551 0.000000 0.000000 0.000000 0.000000 0.000000 0.000000 0.009966 -0.052010 -33.385346 -0.000000 0.000000 0.000000 -0.000000 0.000000 0.000000 0.000000 0.000000 0.000000 0.009966 -0.052010 -33.385346 -0.000000 0.000000 0.000000 -1.900575 6.172447 -1.623924 0.000000 0.000000 0.000000
39.110942 78.757558 354.199429 -0.049748 0.050168 33.345040 0.013982 -0.069255 -33.345010 -0.000000 0.000000 0.000000 -0.000000 0.000000 0.000000 0.000000 0.000000 0.000000 -0.000000 0.000000 0.000000 -0.000000 0.000000 0.000000 2.510046 1.872357 -0.988300 -5.358357 -9.752315 2.388386 0.000000 0.000000 0.000000 0.000000 0.000000 0.000000 -1.058306 -1.147567 0.110907 -0.546922 1.667143 -0.999627 3.140135 -0.546530 2.815327 2.623856 -1.375413 -2.985632 0.000000 0.000000 0.000000 0.000000 0.000000 0.000000 0.013982 -0.069255 -33.345010 -0.000000 0.000000 0.000000 -0.000000 0.000000 0.000000 0.000000 0.000000 0.000000 0.013982 -0.069255 -33.345010 0.352435 -0.761152 -0.026450 -2.883697 9.021117 -2.039346 0.000000 0.000000 0.000000
39.105840 78.755793 354.203556 -0.058786 0.057901 33.335240 0.017295 -0.080679 -33.335198 -0.000000 0.000000 0.000000 -0.000000 0.000000 0.000000 0.000000 0.000000 0.000000 -0.000000 0.000000 0.000000 -0.000000 0.000000 0.000000 3.015379 2.423141 -1.209094 -6.104495 -12.062882 2.737930 0.000000 0.000000 0.000000 0.000000 0.000000 0.000000 -1.069991 -1.262818 0.078831 -0.626147 1.806521 -1.026342 3.160031 -0.411660 3.179936 3.358251 -1.889278 -3.604521 0.000000 0.000000 0.000000 0.000000 0.000000 0.000000 0.017295 -0.080679 -33.335198 -0.000000 0.000000 0.000000 -0.000000 0.000000 0.000000 0.000000 0.000000 0.000000 0.017295 -0.080679 -33.335198 0.367218 -0.950267 -0.047132 -3.376408 10.776967 -2.326804 0.000000 0.000000 0.000000
39.101353 78.765628 354.213514 -0.064057 0.061142 33.355945 0.019887 -0.086291 -33.355896 -0.000000 0.000000 0.000000 -0.000000 0.000000 0.000000 0.000000 0.000000 0.000000 -0.000000 0.000000 0.000000 -0.000000 0.000000 0.000000 3.340430 2.936309 -1.365551 -6.364696 -13.908372 2.924064 0.000000 0.000000 0.000000 0.000000 0.000000 0.000000 -0.912193 -1.246313 0.013937 -0.654830 1.737527 -0.905328 2.656762 -0.128444 3.248171 4.032809 -2.405598 -4.030977 0.000000 0.000000 0.000000 0.000000 0.000000 0.000000 0.019887 -0.086291 -33.355896 0.381566 0.717019 0.065328 -0.382413 -0.716568 -0.070107 0.000000 0.000000 0.000000 0.019887 -0.086291 -33.355896 0.328489 -1.101065 -0.073950 -3.695617 12.046686 -2.485052 0.000000 0.000000 0.000000
39.091708 78.798900 354.237040 -0.072293 0.054009 33.467036 0.030523 -0.084921 -33.466979 -0.000000 0.000000 0.000000 -0.000000 0.000000 0.000000 0.000000 0.000000 0.000000 -0.000000 0.000000 0.000000 -0.000000 0.000000 0.000000 3.540908 4.237555 -1.539946 -4.909341 -15.695121 2.718476 0.000000 0.000000 0.000000 0.000000 0.000000 0.000000 -0.576657 -1.365836 -0.173439 -0.708459 1.730424 -0.616239 2.155671 0.007425 2.917932 3.654501 -2.120507 -3.529574 0.000000 0.000000 0.000000 0.000000 0.000000 0.000000 0.030523 -0.084921 -33.466979 0.465085 0.872392 0.079055 -0.466342 -0.871721 -0.086143 0.000000 0.000000 0.000000 0.030523 -0.084921 -33.466979 0.391287 -1.338819 -0.090736 -4.556222 14.774610 -2.830615 0.000000 0.000000 0.000000
39.086501 78.844347 354.261893 -0.072967 0.043500 33.582405 0.036727 -0.076600 -33.582352 -0.000000 0.000000 0.000000 -0.000000 0.000000 0.000000 0.000000 0.000000 0.000000 -0.000000 0.000000 0.000000 -0.000000 0.000000 0.000000 3.150681 4.312946 -1.399619 -4.808819 -15.908712 2.653557 0.000000 0.000000 0.000000 0.000000 0.000000 0.000000 0.068216 -1.358074 -0.456242 -0.791248 1.510872 -0.059689 0.865624 0.465402 2.370371 3.806465 -2.654456 -3.994810 0.000000 0.000000 0.000000 0.000000 0.000000 0.000000 -0.731394 -0.393803 -33.556134 1.030662 1.785413 0.055191 -0.566967 -1.095887 -0.104997 0.000000 0.000000 0.000000 0.036727 -0.076600 -33.582352 0.213010 -1.497740 -0.147768 -3.872090 12.899705 -2.270822 0.000000 0.000000 0.000000
39.079053 78.892693 354.284734 -0.078652 0.034687 33.817100 0.046041 -0.072592 -33.817047 -0.000000 0.000000 0.000000 -0.000000 0.000000 0.000000 0.000000 0.000000 0.000000 -0.000000 0.000000 0.000000 -0.000000 0.000000 0.000000 3.270383 4.604534 -1.466468 -4.611590 -16.132983 2.634431 0.000000 0.000000 0.000000 0.000000 0.000000 0.000000 0.790346 -0.612885 -0.544751 -0.796182 0.605285 0.553184 -0.916606 0.969515 1.269616 4.909200 -3.215068 -3.809884 0.000000 0.000000 0.000000 0.000000 0.000000 0.000000 0.046041 -0.072592 -33.817047 0.640618 1.233074 0.106254 -0.643052 -1.231807 -0.120061 0.000000 0.000000 0.000000 0.046041 -0.072592 -33.817047 -0.092922 -1.479045 -0.209240 -3.619468 12.886065 -2.158796 0.000000 0.000000 0.000000
39.078422 78.930736 354.302634 -0.070271 0.028296 33.896514 0.042547 -0.062677 -33.896474 -0.000000 0.000000 0.000000 -0.000000 0.000000 0.000000 0.000000 0.000000 0.000000 0.638562 0.721082 0.024444 -0.638920 -0.720765 -0.032481 2.823320 4.123851 -1.263390 -2.833919 -15.643728 2.275052 0.000000 0.000000 0.000000 0.000000 0.000000 0.000000 1.510145 -0.129990 -0.719513 -0.194327 -0.480627 1.057939 -5.336139 3.080418 0.525350 7.619006 -4.584079 -3.125695 0.000000 0.000000 0.000000 0.000000 0.000000 0.000000 0.042547 -0.062677 -33.896474 0.656276 1.264388 0.108652 -0.658833 -1.263058 -0.123156 0.000000 0.000000 0.000000 0.042547 -0.062677 -33.896474 -0.484831 -1.328438 -0.271166 -3.279353 12.736303 -2.050766 0.000000 0.000000 0.000000
39.095022 78.934464 354.318465 -0.033798 0.034925 33.945162 0.008536 -0.047845 -33.945148 -0.000000 0.000000 0.000000 -0.000000 0.000000 0.000000 0.000000 0.000000 0.000000 0.812219 0.954139 0.026912 -0.812780 -0.953661 -0.040439 3.472211 3.483532 -1.455977 -3.087228 -14.268259 2.317455 0.000000 0.000000 0.000000 0.000000 0.000000 0.000000 2.136618 0.782081 -0.730761 -0.878288 -1.001459 1.763481 -6.938884 3.787093 0.175985 9.241817 -5.524324 -3.043970 0.000000 0.000000 0.000000 0.000000 0.000000 0.000000 0.008536 -0.047845 -33.945148 0.597348 1.178106 0.098727 -0.599503 -1.177011 -0.111027 0.000000 0.000000 0.000000 0.008536 -0.047845 -33.945148 -0.770742 -1.011587 -0.287859 -3.042362 12.410539 -1.971641 0.000000 0.000000 0.000000
39.138301 78.869297 354.330021 0.050584 0.057664 33.470578 -0.073998 -0.020204 -33.470616 -0.000000 0.000000 0.000000 -0.000000 0.000000 0.000000 0.000000 0.000000 0.000000 0.879523 1.008436 0.030427 -0.880195 -1.007850 -0.045909 3.796797 3.348559 -1.564782 -2.228794 -15.072336 2.318194 0.000000 0.000000 0.000000 0.000000 0.000000 0.000000 2.548753 1.698824 -0.652000 -2.316768 -0.961952 2.382218 -7.391131 4.061161 0.490014 8.957510 -6.307555 -3.760880 0.000000 0.000000 0.000000 0.000000 0.000000 0.000000 -0.073998 -0.020204 -33.470616 0.500349 1.072419 0.081247 -0.501957 -1.071667 -0.090624 0.000000 0.000000 0.000000 -0.073998 -0.020204 -33.470616 -0.981138 -0.569230 -0.270547 -2.846383 11.967680 -1.974147 0.000000 0.000000 0.000000
